<?xml version="1.0" encoding="UTF-8"?>
<svg width="40px" height="40px" viewBox="0 0 40 40" version="1.1" xmlns="http://www.w3.org/2000/svg" xmlns:xlink="http://www.w3.org/1999/xlink">
    <!-- Generator: Sketch 51.1 (57501) - http://www.bohemiancoding.com/sketch -->
    <title>np_add_937093_105ED9</title>
    <desc>Created with Sketch.</desc>
    <defs></defs>
    <g id="Page-1" stroke="none" stroke-width="1" fill="none" fill-rule="evenodd">
        <g id="adding_risk_category_listing" transform="translate(-725.000000, -454.000000)" fill="#062031" fill-rule="nonzero">
            <g id="np_add_937093_105ED9" transform="translate(725.000000, 454.000000)">
                <path d="M19.7077419,39.4210345 C30.5541935,39.4210345 39.4180645,30.5603893 39.4180645,19.7107119 C39.4180645,8.86426027 30.5574194,0.000389298688 19.7077419,0.000389298688 C8.86129032,-0.0676558626 0,8.79329252 0,19.6397441 C0,30.5597441 8.86064516,39.4203893 19.7077419,39.4203893 L19.7077419,39.4210345 Z M11.2019355,18.3649054 L18.4322581,18.3649054 L18.4322581,11.1345828 C18.4322581,10.4263893 18.9992968,9.78632478 19.7805161,9.78632478 C20.5592258,9.78632478 21.1287742,10.3533635 21.1287742,11.1345828 L21.1287742,18.3649054 L28.3590968,18.3649054 C29.0672903,18.3649054 29.7073548,18.9319441 29.7073548,19.7131635 C29.7073548,20.4918732 29.1403161,21.0614216 28.3590968,21.0614216 L21.055871,21.0589016 L21.055871,28.2892241 C21.055871,28.9974177 20.4888323,29.6374822 19.7076129,29.6374822 C18.9289032,29.6374822 18.3593548,29.0704435 18.3593548,28.2892241 L18.3618755,20.988579 L11.2018755,20.988579 C10.4936819,20.988579 9.85361742,20.4215403 9.85361742,19.6403209 C9.85361742,18.8616112 10.4206561,18.3650951 11.2018755,18.3650951 L11.2019355,18.3649054 Z" id="Shape"></path>
            </g>
        </g>
    </g>
</svg>