<?xml version="1.0" encoding="UTF-8"?>
<svg width="16px" height="18px" viewBox="0 0 16 18" version="1.1" xmlns="http://www.w3.org/2000/svg" xmlns:xlink="http://www.w3.org/1999/xlink">
    <!-- Generator: Sketch 51.1 (57501) - http://www.bohemiancoding.com/sketch -->
    <title>np_calendar_1209677_C8CACC Copy</title>
    <desc>Created with Sketch.</desc>
    <defs></defs>
    <g id="Page-1" stroke="none" stroke-width="1" fill="none" fill-rule="evenodd">
        <g id="adding_risk_category_listing" transform="translate(-1201.000000, -381.000000)" fill="#828F98" fill-rule="nonzero">
            <g id="np_calendar_1209677_C8CACC-Copy" transform="translate(1201.000000, 381.000000)">
                <path d="M1.5312,2.05714286 L1.98834286,2.05714286 C2.12584229,2.05714286 2.21691429,1.96607086 2.21691429,1.82857143 C2.21691429,1.691072 2.12584229,1.6 1.98834286,1.6 L1.5312,1.6 C0.685668571,1.6 -4.57142857e-05,2.28571429 -4.57142857e-05,3.13124571 L-4.57142857e-05,16.0688457 C-4.57142857e-05,16.9143771 0.685668571,17.6000914 1.5312,17.6000914 L14.4688,17.6000914 C15.3143314,17.6000914 16.0000457,16.9143771 16.0000457,16.0688457 L16.0000457,3.13124571 C16.0000457,2.28571429 15.3143314,1.6 14.4688,1.6 L13.9429029,1.6 C13.8054034,1.6 13.7143314,1.691072 13.7143314,1.82857143 C13.7143314,1.96607086 13.8054034,2.05714286 13.9429029,2.05714286 L14.4688,2.05714286 C15.0634514,2.05714286 15.5429029,2.53750857 15.5429029,3.13124571 L15.5429029,5.94290286 L0.457188571,5.94290286 L0.457188571,3.13124571 C0.457188571,2.53748571 0.937554286,2.05714286 1.53129143,2.05714286 L1.5312,2.05714286 Z M15.5428571,6.4 L15.5428571,16.0688 C15.5428571,16.6634514 15.0624914,17.1429029 14.4687543,17.1429029 L1.53115429,17.1429029 C0.936502857,17.1429029 0.457051429,16.6625371 0.457051429,16.0688 L0.457051429,6.4 L15.5428571,6.4 Z" id="Shape"></path>
                <path d="M5.09737143,1.85 C5.09737143,2.00039 5.18844343,2.1 5.32594286,2.1 L10.6518857,2.1 C10.7893851,2.1 10.8804571,2.00039 10.8804571,1.85 C10.8804571,1.69961 10.7893851,1.6 10.6518857,1.6 L5.32594286,1.6 C5.21165714,1.6 5.09737143,1.69961 5.09737143,1.85 Z" id="Shape"></path>
                <path d="M2.97142857,10.7428571 L4.11428571,10.7428571 C4.50267429,10.7428571 4.8,10.4455314 4.8,10.0571429 L4.8,8.91428571 C4.8,8.52589714 4.50267429,8.22857143 4.11428571,8.22857143 L2.97142857,8.22857143 C2.58304,8.22857143 2.28571429,8.52589714 2.28571429,8.91428571 L2.28571429,10.0571429 C2.28571429,10.4455314 2.58304,10.7428571 2.97142857,10.7428571 Z M2.74285714,8.91428571 C2.74285714,8.77678629 2.83392914,8.68571429 2.97142857,8.68571429 L4.11428571,8.68571429 C4.25178514,8.68571429 4.34285714,8.77678629 4.34285714,8.91428571 L4.34285714,10.0571429 C4.34285714,10.1946423 4.25178514,10.2857143 4.11428571,10.2857143 L2.97142857,10.2857143 C2.83392914,10.2857143 2.74285714,10.1946423 2.74285714,10.0571429 L2.74285714,8.91428571 Z" id="Shape"></path>
                <path d="M7.31428571,10.7428571 L8.45714286,10.7428571 C8.84553143,10.7428571 9.14285714,10.4455314 9.14285714,10.0571429 L9.14285714,8.91428571 C9.14285714,8.52589714 8.84553143,8.22857143 8.45714286,8.22857143 L7.31428571,8.22857143 C6.92589714,8.22857143 6.62857143,8.52589714 6.62857143,8.91428571 L6.62857143,10.0571429 C6.62857143,10.4455314 6.92589714,10.7428571 7.31428571,10.7428571 Z M7.08571429,8.91428571 C7.08571429,8.77678629 7.17678629,8.68571429 7.31428571,8.68571429 L8.45714286,8.68571429 C8.59464229,8.68571429 8.68571429,8.77678629 8.68571429,8.91428571 L8.68571429,10.0571429 C8.68571429,10.1946423 8.59464229,10.2857143 8.45714286,10.2857143 L7.31428571,10.2857143 C7.17678629,10.2857143 7.08571429,10.1946423 7.08571429,10.0571429 L7.08571429,8.91428571 Z" id="Shape"></path>
                <path d="M11.6571429,10.7428571 L12.8,10.7428571 C13.1883886,10.7428571 13.4857143,10.4455314 13.4857143,10.0571429 L13.4857143,8.91428571 C13.4857143,8.52589714 13.1883886,8.22857143 12.8,8.22857143 L11.6571429,8.22857143 C11.2687543,8.22857143 10.9714286,8.52589714 10.9714286,8.91428571 L10.9714286,10.0571429 C10.9714286,10.4455314 11.2687543,10.7428571 11.6571429,10.7428571 Z M11.4285714,8.91428571 C11.4285714,8.77678629 11.5196434,8.68571429 11.6571429,8.68571429 L12.8,8.68571429 C12.9374994,8.68571429 13.0285714,8.77678629 13.0285714,8.91428571 L13.0285714,10.0571429 C13.0285714,10.1946423 12.9374994,10.2857143 12.8,10.2857143 L11.6571429,10.2857143 C11.5196434,10.2857143 11.4285714,10.1946423 11.4285714,10.0571429 L11.4285714,8.91428571 Z" id="Shape"></path>
                <path d="M2.97142857,15.0857143 L4.11428571,15.0857143 C4.50267429,15.0857143 4.8,14.7883886 4.8,14.4 L4.8,13.2571429 C4.8,12.8687543 4.50267429,12.5714286 4.11428571,12.5714286 L2.97142857,12.5714286 C2.58304,12.5714286 2.28571429,12.8687543 2.28571429,13.2571429 L2.28571429,14.4 C2.28571429,14.7883886 2.58304,15.0857143 2.97142857,15.0857143 Z M2.74285714,13.2571429 C2.74285714,13.1196434 2.83392914,13.0285714 2.97142857,13.0285714 L4.11428571,13.0285714 C4.25178514,13.0285714 4.34285714,13.1196434 4.34285714,13.2571429 L4.34285714,14.4 C4.34285714,14.5374994 4.25178514,14.6285714 4.11428571,14.6285714 L2.97142857,14.6285714 C2.83392914,14.6285714 2.74285714,14.5374994 2.74285714,14.4 L2.74285714,13.2571429 Z" id="Shape"></path>
                <path d="M7.31428571,15.0857143 L8.45714286,15.0857143 C8.84553143,15.0857143 9.14285714,14.7883886 9.14285714,14.4 L9.14285714,13.2571429 C9.14285714,12.8687543 8.84553143,12.5714286 8.45714286,12.5714286 L7.31428571,12.5714286 C6.92589714,12.5714286 6.62857143,12.8687543 6.62857143,13.2571429 L6.62857143,14.4 C6.62857143,14.7883886 6.92589714,15.0857143 7.31428571,15.0857143 Z M7.08571429,13.2571429 C7.08571429,13.1196434 7.17678629,13.0285714 7.31428571,13.0285714 L8.45714286,13.0285714 C8.59464229,13.0285714 8.68571429,13.1196434 8.68571429,13.2571429 L8.68571429,14.4 C8.68571429,14.5374994 8.59464229,14.6285714 8.45714286,14.6285714 L7.31428571,14.6285714 C7.17678629,14.6285714 7.08571429,14.5374994 7.08571429,14.4 L7.08571429,13.2571429 Z" id="Shape"></path>
                <path d="M11.6571429,15.0857143 L12.8,15.0857143 C13.1883886,15.0857143 13.4857143,14.7883886 13.4857143,14.4 L13.4857143,13.2571429 C13.4857143,12.8687543 13.1883886,12.5714286 12.8,12.5714286 L11.6571429,12.5714286 C11.2687543,12.5714286 10.9714286,12.8687543 10.9714286,13.2571429 L10.9714286,14.4 C10.9714286,14.7883886 11.2687543,15.0857143 11.6571429,15.0857143 Z M11.4285714,13.2571429 C11.4285714,13.1196434 11.5196434,13.0285714 11.6571429,13.0285714 L12.8,13.0285714 C12.9374994,13.0285714 13.0285714,13.1196434 13.0285714,13.2571429 L13.0285714,14.4 C13.0285714,14.5374994 12.9374994,14.6285714 12.8,14.6285714 L11.6571429,14.6285714 C11.5196434,14.6285714 11.4285714,14.5374994 11.4285714,14.4 L11.4285714,13.2571429 Z" id="Shape"></path>
                <path d="M11.4285714,0.685714286 L11.4285714,2.97142857 C11.4285714,3.35981714 11.7258971,3.65714286 12.1142857,3.65714286 L12.5714286,3.65714286 C12.9598171,3.65714286 13.2571429,3.35981714 13.2571429,2.97142857 L13.2571429,0.685714286 C13.2571429,0.297325714 12.9598171,0 12.5714286,0 L12.1142857,0 C11.7258971,0 11.4285714,0.297325714 11.4285714,0.685714286 Z M12.8,0.685714286 L12.8,2.97142857 C12.8,3.108928 12.708928,3.2 12.5714286,3.2 L12.1142857,3.2 C11.9767863,3.2 11.8857143,3.108928 11.8857143,2.97142857 L11.8857143,0.685714286 C11.8857143,0.548214857 11.9767863,0.457142857 12.1142857,0.457142857 L12.5714286,0.457142857 C12.708928,0.457142857 12.8,0.548214857 12.8,0.685714286 Z" id="Shape"></path>
                <path d="M3.88571429,3.65714286 C4.27410286,3.65714286 4.57142857,3.35981714 4.57142857,2.97142857 L4.57142857,0.685714286 C4.57142857,0.297325714 4.27410286,0 3.88571429,0 L3.42857143,0 C3.04018286,0 2.74285714,0.297325714 2.74285714,0.685714286 L2.74285714,2.97142857 C2.74285714,3.35981714 3.04018286,3.65714286 3.42857143,3.65714286 L3.88571429,3.65714286 Z M3.2,2.97142857 L3.2,0.685714286 C3.2,0.548214857 3.291072,0.457142857 3.42857143,0.457142857 L3.88571429,0.457142857 C4.02321371,0.457142857 4.11428571,0.548214857 4.11428571,0.685714286 L4.11428571,2.97142857 C4.11428571,3.108928 4.02321371,3.2 3.88571429,3.2 L3.42857143,3.2 C3.291072,3.2 3.2,3.108928 3.2,2.97142857 Z" id="Shape"></path>
            </g>
        </g>
    </g>
</svg>