<?xml version="1.0" encoding="UTF-8"?>
<svg width="16px" height="18px" viewBox="0 0 16 18" version="1.1" xmlns="http://www.w3.org/2000/svg" xmlns:xlink="http://www.w3.org/1999/xlink">
    <!-- Generator: Sketch 51.1 (57501) - http://www.bohemiancoding.com/sketch -->
    <title>np_delete_1779196_105ED9</title>
    <desc>Created with Sketch.</desc>
    <defs></defs>
    <g id="Page-1" stroke="none" stroke-width="1" fill="none" fill-rule="evenodd">
        <g id="adding_risk_category_listing" transform="translate(-1106.000000, -639.000000)" fill="#4D606F" fill-rule="nonzero">
            <g id="np_delete_1779196_105ED9" transform="translate(1106.000000, 639.000000)">
                <path d="M0.613636364,3.43181818 C0.299709091,3.43181818 0.0454545455,3.17756364 0.0454545455,2.86363636 C0.0454545455,2.54970909 0.299709091,2.29545455 0.613636364,2.29545455 L15.3863636,2.29545455 C15.7002909,2.29545455 15.9545455,2.54970909 15.9545455,2.86363636 C15.9545455,3.17756364 15.7002909,3.43181818 15.3863636,3.43181818 L0.613636364,3.43181818 Z" id="Shape"></path>
                <path d="M8.56818182,13.6590909 C8.56818182,13.9730182 8.31392727,14.2272727 8,14.2272727 C7.68607273,14.2272727 7.43181818,13.9730182 7.43181818,13.6590909 L7.43181818,5.70454545 C7.43181818,5.39061818 7.68607273,5.13636364 8,5.13636364 C8.31392727,5.13636364 8.56818182,5.39061818 8.56818182,5.70454545 L8.56818182,13.6590909 Z" id="Shape"></path>
                <path d="M6.294,13.6185455 C6.31601636,13.9317636 6.08092727,14.2030545 5.76772727,14.2257818 C5.45450909,14.2477982 5.18321818,14.0127091 5.16049091,13.6995091 L4.59230909,5.74496364 C4.57029273,5.43174545 4.80538182,5.16045455 5.11858182,5.13772727 C5.4318,5.11571091 5.70309091,5.3508 5.72581818,5.664 L6.294,13.6185455 Z" id="Shape"></path>
                <path d="M10.8394545,13.6996364 C10.8167273,14.0128545 10.5454182,14.2479273 10.2322182,14.2259091 C9.919,14.2031818 9.68392727,13.9318727 9.70594545,13.6186727 L10.2741273,5.66412727 C10.2968545,5.35090909 10.5681636,5.11583636 10.8813636,5.13785455 C11.1945818,5.16058182 11.4296545,5.43189091 11.4076364,5.74509091 L10.8394545,13.6996364 Z" id="Shape"></path>
                <path d="M5.15909091,2.86363636 C5.15909091,3.17756364 4.90483636,3.43181818 4.59090909,3.43181818 C4.27698182,3.43181818 4.02272727,3.17756364 4.02272727,2.86363636 L4.02272727,1.72727273 C4.02272727,0.786218182 4.78621818,0.0227272727 5.72727273,0.0227272727 L10.2727273,0.0227272727 C11.2137818,0.0227272727 11.9772727,0.786218182 11.9772727,1.72727273 L11.9772727,2.86363636 C11.9772727,3.17756364 11.7230182,3.43181818 11.4090909,3.43181818 C11.0951636,3.43181818 10.8409091,3.17756364 10.8409091,2.86363636 L10.8409091,1.72727273 C10.8409091,1.41334545 10.5866545,1.15909091 10.2727273,1.15909091 L5.72727273,1.15909091 C5.41334545,1.15909091 5.15909091,1.41334545 5.15909091,1.72727273 L5.15909091,2.86363636 Z" id="Shape"></path>
                <path d="M1.184,2.91054545 C1.15630182,2.57958182 1.41767273,2.29549091 1.75005455,2.29549091 L14.2500545,2.29549091 C14.5824364,2.29549091 14.8438,2.57958182 14.8161091,2.91054545 L13.7664,15.5050909 C13.6932473,16.3886182 12.9546182,17.0683091 12.0682545,17.0683091 L3.93189091,17.0683091 C3.04552727,17.0683091 2.30689091,16.3886182 2.23374545,15.5050909 L1.184,2.91054545 Z M2.36723636,3.43185455 L3.36581818,15.4105818 C3.39067636,15.7053273 3.63641818,15.9318909 3.93187273,15.9318909 L12.0682364,15.9318909 C12.3636909,15.9318909 12.6094364,15.7053273 12.6342909,15.4105818 L13.6328727,3.43185455 L2.36723636,3.43185455 Z" id="Shape"></path>
            </g>
        </g>
    </g>
</svg>