<?xml version="1.0" encoding="UTF-8"?>
<svg width="16px" height="16px" viewBox="0 0 16 16" version="1.1" xmlns="http://www.w3.org/2000/svg" xmlns:xlink="http://www.w3.org/1999/xlink">
    <!-- Generator: Sketch 51.1 (57501) - http://www.bohemiancoding.com/sketch -->
    <title>np_edit_1694275_062031 copy 2</title>
    <desc>Created with Sketch.</desc>
    <defs></defs>
    <g id="Page-1" stroke="none" stroke-width="1" fill="none" fill-rule="evenodd">
        <g id="adding_risk_category_listing" transform="translate(-1065.000000, -639.000000)" fill="#4D606F" fill-rule="nonzero">
            <g id="np_edit_1694275_062031-copy-2" transform="translate(1065.000000, 639.000000)">
                <path d="M5.01834146,7.208 L5.01757932,7.208 L5.01757932,7.20952449 C4.97870712,7.24915766 4.94898224,7.29641424 4.92535298,7.34748156 C4.91849307,7.36043883 4.91392,7.3718718 4.90934673,7.38482985 C4.90401132,7.39778712 4.89715161,7.40998302 4.89334068,7.42370205 L3.75538946,11.631702 C3.71041971,11.798623 3.75843824,11.9762094 3.88038849,12.0989216 C3.9718519,12.190385 4.09533483,12.2399284 4.22109093,12.2399284 C4.26301093,12.2399284 4.30569385,12.234593 4.34685288,12.22316 L8.39251141,11.1294039 C8.41918849,11.1339772 8.44510263,11.1454101 8.47177971,11.1454101 C8.59525483,11.1454101 8.71872605,11.0981536 8.81324312,11.0036423 L15.365048,4.45105698 C15.7141407,4.10196429 15.9077212,3.63702771 15.9077212,3.14313502 C15.9077212,2.64924234 15.7141231,2.18428624 15.365048,1.83521307 L14.186687,0.656091122 C13.4877602,-0.0428357073 12.267487,-0.0420747317 11.5708821,0.656091122 L5.01834146,7.208 Z M12.2530732,1.33834146 C12.5869073,1.00374634 13.1699902,1.00450732 13.5046049,1.33834146 L14.6837268,2.51670244 C14.8506478,2.68438439 14.9428683,2.90618537 14.9428683,3.14321951 C14.9428683,3.37949268 14.850642,3.60206829 14.6837268,3.76897561 L14.3285463,4.1241561 L11.8979122,1.69352195 L12.2530732,1.33834146 Z M11.2157268,2.3756878 L13.646361,4.80632195 L8.47250732,9.9809561 L6.04109268,7.55032195 L11.2157268,2.3756878 Z M5.7568,8.62954146 L7.49918049,10.371922 L4.90620488,11.0731512 L5.60665366,8.48017561 L5.7568,8.62954146 Z" id="Shape"></path>
                <polygon id="Shape" points="11.1516098 4.1875122 11.8337756 4.86967805 8.80626341 7.89797073 8.12409756 7.21580488"></polygon>
                <path d="M0.556487805,15.3726829 L13.5381463,15.3726829 C14.5587317,15.3726829 15.388,14.5426537 15.388,13.5228293 L15.388,6.99014634 L14.4238244,6.99014634 L14.4238244,13.5228293 C14.4238244,14.0113951 14.0267122,14.4077463 13.5381463,14.4077463 L1.03960976,14.4077463 L1.03960976,1.60677073 L9.27356098,1.60677073 L9.27356098,0.641834146 L0.556292683,0.641834146 C0.290282927,0.641834146 0.0745756098,0.858302439 0.0745756098,1.1243122 L0.0745756098,14.890361 C0.0745756098,15.1571317 0.289521951,15.372839 0.556292683,15.372839 L0.556487805,15.3726829 Z" id="Shape"></path>
            </g>
        </g>
    </g>
</svg>