<?xml version="1.0" encoding="UTF-8"?>
<svg width="18px" height="18px" viewBox="0 0 18 18" version="1.1" xmlns="http://www.w3.org/2000/svg" xmlns:xlink="http://www.w3.org/1999/xlink">
    <!-- Generator: Sketch 51.1 (57501) - http://www.bohemiancoding.com/sketch -->
    <title>np_tick_1308426_000000 copy 4</title>
    <desc>Created with Sketch.</desc>
    <defs></defs>
    <g id="Page-1" stroke="none" stroke-width="1" fill="none" fill-rule="evenodd">
        <g id="adding_risk_category_listing_add_controli_tab_5_1-copy-2" transform="translate(-891.000000, -228.000000)" fill="#28BF45" fill-rule="nonzero">
            <g id="np_tick_1308426_000000-copy-4" transform="translate(891.000000, 228.000000)">
                <path d="M9,18 C4.02910714,18 0,13.9708929 0,9 C0,4.02910714 4.02910714,0 9,0 C13.9708929,0 18,4.02910714 18,9 C18,13.9708929 13.9708929,18 9,18 Z M5.74296429,9.33396429 C5.48431393,9.09163607 5.07751071,9.10544786 4.83393214,9.36409821 C4.59160393,9.62274857 4.60541571,10.0295518 4.86406607,10.2731304 L7.43549464,12.6838446 C7.71172393,12.942495 8.14993393,12.9073371 8.38219821,12.6085082 L12.8821982,6.82279393 C13.10067,6.54280071 13.0504468,6.13850464 12.7691968,5.92128321 C12.4892036,5.70281143 12.0849075,5.75303464 11.8676861,6.03428464 L7.80097179,11.2626418 L5.74296429,9.33396429 Z" id="Shape"></path>
            </g>
        </g>
    </g>
</svg>